<?xml version="1.0" encoding="UTF-8"?>
<svg width="50px" height="50px" viewBox="0 0 50 50" version="1.1" xmlns="http://www.w3.org/2000/svg" xmlns:xlink="http://www.w3.org/1999/xlink">
    <!-- Generator: Sketch 55.1 (78136) - https://sketchapp.com -->
    <title>Group 45</title>
    <desc>Created with Sketch.</desc>
    <defs>
        <filter x="-4.0%" y="-14.1%" width="108.1%" height="132.9%" filterUnits="objectBoundingBox" id="filter-1">
            <feOffset dx="0" dy="2" in="SourceAlpha" result="shadowOffsetOuter1"></feOffset>
            <feGaussianBlur stdDeviation="2" in="shadowOffsetOuter1" result="shadowBlurOuter1"></feGaussianBlur>
            <feColorMatrix values="0 0 0 0 0   0 0 0 0 0   0 0 0 0 0  0 0 0 0.5 0" type="matrix" in="shadowBlurOuter1" result="shadowMatrixOuter1"></feColorMatrix>
            <feMerge>
                <feMergeNode in="shadowMatrixOuter1"></feMergeNode>
                <feMergeNode in="SourceGraphic"></feMergeNode>
            </feMerge>
        </filter>
        <path d="M15,14.5 L23.25,14.5 C23.65,14.5 24,14.15 24,13.75 L24,12.25 C24,11.85 23.65,11.5 23.25,11.5 L15,11.5 C14.7,11.5 14.5,11.3 14.5,11 L14.5,2.75 C14.5,2.35 14.15,2 13.75,2 L12.25,2 C11.85,2 11.5,2.35 11.5,2.75 L11.5,11 C11.5,11.3 11.3,11.5 11,11.5 L2.75,11.5 C2.35,11.5 2,11.85 2,12.25 L2,13.75 C2,14.15 2.35,14.5 2.75,14.5 L11,14.5 C11.3,14.5 11.5,14.7 11.5,15 L11.5,23.25 C11.5,23.65 11.85,24 12.25,24 L13.75,24 C14.15,24 14.5,23.65 14.5,23.25 L14.5,15 C14.5,14.7 14.7,14.5 15,14.5 Z" id="path-2"></path>
    </defs>
    <g id="Page-1" stroke="none" stroke-width="1" fill="none" fill-rule="evenodd">
        <g id="create-org-items" transform="translate(-837.000000, -1447.000000)">
            <g id="Group-46" filter="url(#filter-1)" transform="translate(549.000000, 1428.000000)">
                <g id="Group-45" transform="translate(293.000000, 22.000000)">
                    <circle id="Oval" stroke="#000000" cx="20" cy="20" r="20"></circle>
                    <g id="Icons-/-z-nested-/-icon-glyphs-/-utility-/add" transform="translate(7.000000, 7.000000)">
                        <mask id="mask-3" fill="white">
                            <use xlink:href="#path-2"></use>
                        </mask>
                        <use id="Mask" fill="#000000" fill-rule="evenodd" xlink:href="#path-2"></use>
                        <g id="z-nested-/-Color-Tokens-/-BLACK_TRANSPARENT_07" mask="url(#mask-3)" fill="#000000" fill-rule="evenodd" opacity="0.07">
                            <rect id="Rectangle" x="0" y="0" width="26" height="26"></rect>
                        </g>
                    </g>
                </g>
            </g>
        </g>
    </g>
</svg>