<?xml version="1.0" encoding="UTF-8"?>
<svg width="22px" height="22px" viewBox="0 0 22 22" version="1.1" xmlns="http://www.w3.org/2000/svg" xmlns:xlink="http://www.w3.org/1999/xlink">
    <!-- Generator: Sketch 55.1 (78136) - https://sketchapp.com -->
    <title>Icons / z-nested / icon glyphs / utility /checkin</title>
    <desc>Created with Sketch.</desc>
    <defs>
        <filter x="-4.0%" y="-11.2%" width="108.1%" height="126.2%" filterUnits="objectBoundingBox" id="filter-1">
            <feOffset dx="0" dy="2" in="SourceAlpha" result="shadowOffsetOuter1"></feOffset>
            <feGaussianBlur stdDeviation="2" in="shadowOffsetOuter1" result="shadowBlurOuter1"></feGaussianBlur>
            <feColorMatrix values="0 0 0 0 0   0 0 0 0 0   0 0 0 0 0  0 0 0 0.5 0" type="matrix" in="shadowBlurOuter1" result="shadowMatrixOuter1"></feColorMatrix>
            <feMerge>
                <feMergeNode in="shadowMatrixOuter1"></feMergeNode>
                <feMergeNode in="SourceGraphic"></feMergeNode>
            </feMerge>
        </filter>
        <path d="M6.46153846,1.23076923 L2.15384615,1.23076923 C1.63076923,1.23076923 1.23076923,1.63076923 1.23076923,2.15384615 L1.23076923,14.4615385 C1.23076923,14.6153846 1.38461538,14.7692308 1.53846154,14.7692308 L2.76923077,14.7692308 C2.95384615,14.7692308 3.07692308,14.6461538 3.07692308,14.4615385 L3.07692308,12.6153846 C3.07692308,12.4307692 3.2,12.3076923 3.38461538,12.3076923 L5.23076923,12.3076923 C5.41538462,12.3076923 5.53846154,12.4307692 5.53846154,12.6153846 L5.53846154,14.4615385 C5.53846154,14.6461538 5.66153846,14.7692308 5.84615385,14.7692308 L6.76923077,14.7692308 C7.10769231,14.7692308 7.38461538,14.4923077 7.38461538,14.1538462 L7.38461538,2.15384615 C7.38461538,1.63076923 6.98461538,1.23076923 6.46153846,1.23076923 Z M3.69230769,10.9230769 C3.69230769,11.0153846 3.63076923,11.0769231 3.53846154,11.0769231 L2.61538462,11.0769231 C2.52307692,11.0769231 2.46153846,11.0153846 2.46153846,10.9230769 L2.46153846,9.38461538 C2.46153846,9.29230769 2.52307692,9.23076923 2.61538462,9.23076923 L3.53846154,9.23076923 C3.63076923,9.23076923 3.69230769,9.29230769 3.69230769,9.38461538 L3.69230769,10.9230769 Z M3.69230769,7.84615385 C3.69230769,7.93846154 3.63076923,8 3.53846154,8 L2.61538462,8 C2.52307692,8 2.46153846,7.93846154 2.46153846,7.84615385 L2.46153846,6.30769231 C2.46153846,6.21538462 2.52307692,6.15384615 2.61538462,6.15384615 L3.53846154,6.15384615 C3.63076923,6.15384615 3.69230769,6.21538462 3.69230769,6.30769231 L3.69230769,7.84615385 Z M3.69230769,4.76923077 C3.69230769,4.86153846 3.63076923,4.92307692 3.53846154,4.92307692 L2.61538462,4.92307692 C2.52307692,4.92307692 2.46153846,4.86153846 2.46153846,4.76923077 L2.46153846,3.23076923 C2.46153846,3.13846154 2.52307692,3.07692308 2.61538462,3.07692308 L3.53846154,3.07692308 C3.63076923,3.07692308 3.69230769,3.13846154 3.69230769,3.23076923 L3.69230769,4.76923077 Z M6.15384615,10.9230769 C6.15384615,11.0153846 6.09230769,11.0769231 6,11.0769231 L5.07692308,11.0769231 C4.98461538,11.0769231 4.92307692,11.0153846 4.92307692,10.9230769 L4.92307692,9.38461538 C4.92307692,9.29230769 4.98461538,9.23076923 5.07692308,9.23076923 L6,9.23076923 C6.09230769,9.23076923 6.15384615,9.29230769 6.15384615,9.38461538 L6.15384615,10.9230769 Z M6.15384615,7.84615385 C6.15384615,7.93846154 6.09230769,8 6,8 L5.07692308,8 C4.98461538,8 4.92307692,7.93846154 4.92307692,7.84615385 L4.92307692,6.30769231 C4.92307692,6.21538462 4.98461538,6.15384615 5.07692308,6.15384615 L6,6.15384615 C6.09230769,6.15384615 6.15384615,6.21538462 6.15384615,6.30769231 L6.15384615,7.84615385 Z M6.15384615,4.76923077 C6.15384615,4.86153846 6.09230769,4.92307692 6,4.92307692 L5.07692308,4.92307692 C4.98461538,4.92307692 4.92307692,4.86153846 4.92307692,4.76923077 L4.92307692,3.23076923 C4.92307692,3.13846154 4.98461538,3.07692308 5.07692308,3.07692308 L6,3.07692308 C6.09230769,3.07692308 6.15384615,3.13846154 6.15384615,3.23076923 L6.15384615,4.76923077 Z M13.8461538,4.30769231 L9.53846154,4.30769231 C9.01538462,4.30769231 8.61538462,4.70769231 8.61538462,5.23076923 L8.61538462,14.4615385 C8.61538462,14.6153846 8.76923077,14.7692308 8.92307692,14.7692308 L10.1538462,14.7692308 C10.3384615,14.7692308 10.4615385,14.6461538 10.4615385,14.4615385 L10.4615385,12.6153846 C10.4615385,12.4307692 10.5846154,12.3076923 10.7692308,12.3076923 L12.6153846,12.3076923 C12.8,12.3076923 12.9230769,12.4307692 12.9230769,12.6153846 L12.9230769,14.4615385 C12.9230769,14.6461538 13.0461538,14.7692308 13.2307692,14.7692308 L14.1538462,14.7692308 C14.4923077,14.7692308 14.7692308,14.4923077 14.7692308,14.1538462 L14.7692308,5.23076923 C14.7692308,4.70769231 14.3692308,4.30769231 13.8461538,4.30769231 Z M11.0769231,10.9230769 C11.0769231,11.0153846 11.0153846,11.0769231 10.9230769,11.0769231 L10,11.0769231 C9.90769231,11.0769231 9.84615385,11.0153846 9.84615385,10.9230769 L9.84615385,9.38461538 C9.84615385,9.29230769 9.90769231,9.23076923 10,9.23076923 L10.9230769,9.23076923 C11.0153846,9.23076923 11.0769231,9.29230769 11.0769231,9.38461538 L11.0769231,10.9230769 Z M11.0769231,7.84615385 C11.0769231,7.93846154 11.0153846,8 10.9230769,8 L10,8 C9.90769231,8 9.84615385,7.93846154 9.84615385,7.84615385 L9.84615385,6.30769231 C9.84615385,6.21538462 9.90769231,6.15384615 10,6.15384615 L10.9230769,6.15384615 C11.0153846,6.15384615 11.0769231,6.21538462 11.0769231,6.30769231 L11.0769231,7.84615385 Z M13.5384615,10.9230769 C13.5384615,11.0153846 13.4769231,11.0769231 13.3846154,11.0769231 L12.4615385,11.0769231 C12.3692308,11.0769231 12.3076923,11.0153846 12.3076923,10.9230769 L12.3076923,9.38461538 C12.3076923,9.29230769 12.3692308,9.23076923 12.4615385,9.23076923 L13.3846154,9.23076923 C13.4769231,9.23076923 13.5384615,9.29230769 13.5384615,9.38461538 L13.5384615,10.9230769 Z M13.5384615,7.84615385 C13.5384615,7.93846154 13.4769231,8 13.3846154,8 L12.4615385,8 C12.3692308,8 12.3076923,7.93846154 12.3076923,7.84615385 L12.3076923,6.30769231 C12.3076923,6.21538462 12.3692308,6.15384615 12.4615385,6.15384615 L13.3846154,6.15384615 C13.4769231,6.15384615 13.5384615,6.21538462 13.5384615,6.30769231 L13.5384615,7.84615385 Z" id="path-2"></path>
    </defs>
    <g id="Page-1" stroke="none" stroke-width="1" fill="none" fill-rule="evenodd">
        <g id="create-org-items" transform="translate(-1310.000000, -513.000000)">
            <g id="Group-25" filter="url(#filter-1)" transform="translate(1295.000000, 495.000000)">
                <g id="Icons-/-z-nested-/-icon-glyphs-/-utility-/company" transform="translate(18.052023, 19.000000)">
                    <mask id="mask-3" fill="white">
                        <use xlink:href="#path-2"></use>
                    </mask>
                    <use id="Mask" fill="#000000" fill-rule="evenodd" xlink:href="#path-2"></use>
                    <g id="z-nested-/-Icon-Color-/-PALETTE_GRAY_1" mask="url(#mask-3)" fill="#FFFFFF" fill-rule="evenodd">
                        <g id="z-nested-/-Color-Tokens-/-PALETTE_GRAY_1">
                            <rect id="Rectangle" x="0" y="0" width="16" height="16"></rect>
                        </g>
                    </g>
                </g>
            </g>
        </g>
    </g>
</svg>