<?xml version="1.0" encoding="UTF-8"?>
<svg width="20px" height="25px" viewBox="0 0 20 25" version="1.1" xmlns="http://www.w3.org/2000/svg" xmlns:xlink="http://www.w3.org/1999/xlink">
    <!-- Generator: Sketch 55.1 (78136) - https://sketchapp.com -->
    <title>Icons / z-nested / icon glyphs / utility /lock</title>
    <desc>Created with Sketch.</desc>
    <defs>
        <path d="M5.5,9.50784469 L7.5,9.50784469 C7.8,9.50784469 8,9.35784469 8,9.05784469 L8,9.00784469 C8,6.15784469 10.45,3.80784469 13.35,4.00784469 C16,4.20784469 18,6.50784469 18,9.20784469 L18,9.05784469 C18,9.35784469 18.2,9.50784469 18.5,9.50784469 L20.5,9.50784469 C20.8,9.50784469 21,9.35784469 21,9.05784469 L21,9.00784469 C21,4.45784469 17.2,0.807844689 12.6,1.00784469 C8.35,1.20784469 5.1,4.80784469 5,9.05784469 C5.05,9.30784469 5.25,9.50784469 5.5,9.50784469 L5.5,9.50784469 Z M5,9.05784469 L5,9.25784469 L5,9.05784469 Z M23,13.5078447 C23,12.4078447 22.1,11.5078447 21,11.5078447 L5,11.5078447 C3.9,11.5078447 3,12.4078447 3,13.5078447 L3,23.0078447 C3,24.1078447 3.9,25.0078447 5,25.0078447 L21,25.0078447 C22.1,25.0078447 23,24.1078447 23,23.0078447 L23,13.5078447 Z M15.3,21.3578447 C15.4,21.6578447 15.15,22.0078447 14.8,22.0078447 L11.15,22.0078447 C10.8,22.0078447 10.6,21.7078447 10.65,21.3578447 L11.55,18.3578447 C10.8,17.8578447 10.35,16.9578447 10.5,15.9578447 C10.7,15.0078447 11.45,14.2578447 12.45,14.0578447 C14.05,13.7578447 15.45,14.9078447 15.45,16.4078447 C15.45,17.2078447 15.05,17.9578447 14.4,18.3578447 L15.3,21.3578447 L15.3,21.3578447 Z" id="path-1"></path>
    </defs>
    <g id="Page-1" stroke="none" stroke-width="1" fill="none" fill-rule="evenodd">
        <g id="Create-Organization---ADD-ADDRESS" transform="translate(-1288.000000, -267.000000)">
            <g id="Group-10" transform="translate(996.000000, 167.000000)">
                <g id="Icons-/-z-nested-/-icon-glyphs-/-utility-/lock" transform="translate(289.000000, 99.000000)">
                    <mask id="mask-2" fill="white">
                        <use xlink:href="#path-1"></use>
                    </mask>
                    <use id="Mask" fill="#000000" fill-rule="evenodd" xlink:href="#path-1"></use>
                    <g id="z-nested-/-Icon-Color-/-PALETTE_GRAY_9-Copy-1" mask="url(#mask-2)" fill="#124DBB" fill-rule="evenodd">
                        <g id="sams-blue-2-">
                            <rect id="Rectangle" x="0" y="0" width="26" height="26"></rect>
                        </g>
                    </g>
                </g>
            </g>
        </g>
    </g>
</svg>