<?xml version="1.0" encoding="UTF-8"?>
<svg width="38px" height="38px" viewBox="0 0 38 38" version="1.1" xmlns="http://www.w3.org/2000/svg" xmlns:xlink="http://www.w3.org/1999/xlink">
    <!-- Generator: Sketch 55.1 (78136) - https://sketchapp.com -->
    <title>Icons / z-nested / icon glyphs / standard /relationship</title>
    <desc>Created with Sketch.</desc>
    <defs>
        <filter x="-4.4%" y="-18.5%" width="108.9%" height="143.1%" filterUnits="objectBoundingBox" id="filter-1">
            <feOffset dx="0" dy="2" in="SourceAlpha" result="shadowOffsetOuter1"></feOffset>
            <feGaussianBlur stdDeviation="2" in="shadowOffsetOuter1" result="shadowBlurOuter1"></feGaussianBlur>
            <feColorMatrix values="0 0 0 0 0   0 0 0 0 0   0 0 0 0 0  0 0 0 0.5 0" type="matrix" in="shadowBlurOuter1" result="shadowMatrixOuter1"></feColorMatrix>
            <feMerge>
                <feMergeNode in="shadowMatrixOuter1"></feMergeNode>
                <feMergeNode in="SourceGraphic"></feMergeNode>
            </feMerge>
        </filter>
        <path d="M30.65,30 L28.75,30 L28.75,26.25 L30.65,26.25 C31,26.25 31.25,26 31.25,25.65 L31.25,9.4 C31.25,9 31,8.75 30.65,8.75 L14.4,8.75 C14,8.75 13.75,9 13.75,9.4 L13.75,11.25 L10,11.25 L10,9.4 C10,6.95 11.95,5 14.4,5 L30.65,5 C33.05,5 35,6.95 35,9.4 L35,25.65 C35,28.05 33.05,30 30.65,30 Z M23.75,13.75 L7.5,13.75 C6.15,13.75 5,14.9 5,16.25 L5,32.5 C5,33.9 6.15,35 7.5,35 L23.75,35 C25.15,35 26.25,33.9 26.25,32.5 L26.25,16.25 C26.25,14.9 25.15,13.75 23.75,13.75 Z" id="path-2"></path>
    </defs>
    <g id="Page-1" stroke="none" stroke-width="1" fill="none" fill-rule="evenodd">
        <g id="Add-organization-Zones" transform="translate(-1226.000000, -135.000000)">
            <g id="Group-75" transform="translate(1207.000000, 40.000000)">
                <g id="Group-74">
                    <g id="Group-66" transform="translate(0.000000, 68.000000)">
                        <g id="Group-60">
                            <g id="Group-3">
                                <g id="Group-61">
                                    <g id="Group-67" filter="url(#filter-1)" transform="translate(9.000000, 11.000000)">
                                        <g id="Icons-/-z-nested-/-icon-glyphs-/-standard-/relationship" transform="translate(9.000000, 13.000000)">
                                            <mask id="mask-3" fill="white">
                                                <use xlink:href="#path-2"></use>
                                            </mask>
                                            <use id="Mask" fill="#043491" fill-rule="evenodd" xlink:href="#path-2"></use>
                                        </g>
                                    </g>
                                </g>
                            </g>
                        </g>
                    </g>
                </g>
            </g>
        </g>
    </g>
</svg>