<?xml version="1.0" encoding="UTF-8"?>
<svg width="35px" height="35px" viewBox="0 0 35 35" version="1.1" xmlns="http://www.w3.org/2000/svg" xmlns:xlink="http://www.w3.org/1999/xlink">
    <!-- Generator: Sketch 55.1 (78136) - https://sketchapp.com -->
    <title>Logo</title>
    <desc>Created with Sketch.</desc>
    <g id="Page-1" stroke="none" stroke-width="1" fill="none" fill-rule="evenodd">
        <g id="Create-Organization---ADD-ADDRESS" transform="translate(-6.000000, -8.000000)" fill="#FFFFFF" fill-rule="nonzero">
            <g id="Group-10">
                <g id="Logo" transform="translate(6.000000, 8.040678)">
                    <path d="M32.9082475,18.5366499 L34.4309358,18.5366499 L34.4082091,18.7423588 C34.0900354,22.8565351 32.3173536,26.7192895 29.4083372,29.6220694 C26.1584205,32.890554 21.8176227,34.6962202 17.2268312,34.6962202 C12.6133131,34.6962202 8.29524196,32.890554 5.04532524,29.6220694 C1.79540853,26.3535849 0,22.0108433 0,17.3709666 C0,12.73109 1.79540853,8.38834837 5.04532524,5.11986385 C8.29524196,1.85137934 12.6360398,0.0457130701 17.2268312,0.0457130701 C21.8176227,0.0457130701 26.1584205,1.85137934 29.4083372,5.11986385 C32.3400803,8.06835688 34.1127621,11.9996809 34.4082091,16.1595703 L34.4309358,16.3652791 L32.9082475,16.3652791 L32.8855208,16.1824268 C32.6128006,12.4110985 30.9764789,8.86833561 28.3401828,6.194121 C25.3629864,3.19991491 21.4312689,1.55424438 17.2268312,1.55424438 C13.0223935,1.55424438 9.09067612,3.19991491 6.11347969,6.194121 C3.13628326,9.1883271 1.49996156,13.1425077 1.49996156,17.3709666 C1.49996156,21.5994256 3.13628326,25.5536062 6.11347969,28.5478123 C9.09067612,31.5420184 13.0223935,33.1876889 17.2268312,33.1876889 C21.4312689,33.1876889 25.3629864,31.5420184 28.3401828,28.5478123 C30.9537522,25.9193108 32.5673472,22.4222609 32.8855208,18.7195022 L32.9082475,18.5366499 Z M27.8629223,20.3194597 C28.0674625,19.8166159 28.181096,19.2909156 28.181096,18.7423588 C28.181096,18.1938019 28.0674625,17.6681016 27.8629223,17.1652578 C27.6583821,16.6624141 27.3629351,16.2281399 26.9765814,15.8395788 C26.5902276,15.4510177 26.1356938,15.1538827 25.6584333,14.9481739 C25.1584461,14.7424651 24.6357323,14.6281824 24.0902917,14.6281824 C21.7721693,14.6281824 20.181301,16.7538402 18.4767992,19.0166372 C16.4995771,21.6451387 14.454175,24.3879229 10.9542647,24.3879229 C10.1361039,24.3879229 9.34066971,24.2279272 8.59068893,23.9079357 C7.84070815,23.5879442 7.15890744,23.1308135 6.59074018,22.5594001 C6.02257293,21.9879867 5.56803912,21.3022907 5.24986546,20.548025 C4.93169179,19.7937594 4.77260496,18.9937806 4.77260496,18.1709454 C4.77260496,16.5024183 5.40895229,14.9481739 6.59074018,13.7824906 C7.15890744,13.2110773 7.84070815,12.7539466 8.59068893,12.4339551 C9.27248964,12.1368201 9.99974373,11.9996809 10.7497245,11.9768244 C10.9088113,11.9768244 11.0224448,11.8853982 11.0906249,11.748259 C11.1588049,11.5882633 11.226985,11.4282675 11.3178918,11.2911283 C11.522432,10.9025672 11.7724256,10.5368627 12.0451459,10.1940146 C12.3178661,9.85116661 12.6360398,9.53117512 12.9769402,9.2568967 C13.3178405,8.98261828 13.6814676,8.73119639 14.0678213,8.50263104 C14.4769017,8.27406569 14.8859821,8.09121341 15.3177893,7.97693074 C15.7495964,7.83979153 16.2041302,7.74836539 16.658664,7.70265232 C17.1131978,7.65693925 17.5677316,7.65693925 18.0222654,7.70265232 C18.4767992,7.74836539 18.931333,7.83979153 19.3631401,7.97693074 C19.7949472,8.11406995 20.2040277,8.27406569 20.5903814,8.47977451 C20.9767351,8.68548332 21.3403622,8.93690521 21.6812625,9.21118363 C22.0221629,9.48546205 22.3403366,9.80545354 22.6130568,10.1483016 C22.8857771,10.4911496 23.1357707,10.8568542 23.3630376,11.2454153 C23.5903045,11.6568329 23.772118,12.0682505 23.8857515,12.5025247 C23.9084782,12.5939508 23.9539316,12.7082335 23.9766583,12.8225162 C24.0221116,12.9825119 24.1584718,13.0967946 24.3402853,13.1196511 C24.9766326,13.1425077 25.61298,13.3025034 26.2266006,13.5310688 C26.9084013,13.8282037 27.5220219,14.2396213 28.0447358,14.7653217 C28.5674497,15.291022 28.9765301,15.9081484 29.2719771,16.5938445 C29.5446974,17.2795405 29.7037842,18.0109496 29.7037842,18.7423588 C29.7037842,19.4966244 29.5674241,20.205177 29.2719771,20.890873 C28.9765301,21.5765691 28.5674497,22.1936955 28.0447358,22.7193959 C26.9765814,23.793653 25.5675266,24.3650664 24.067565,24.3650664 L19.0449665,24.3650664 C18.635886,24.3650664 18.2949857,24.0222184 18.2949857,23.6108007 C18.2949857,23.1993831 18.635886,22.8565351 19.0449665,22.8565351 L24.0902917,22.8565351 C25.1811728,22.8565351 26.2038739,22.4222609 26.9765814,21.6451387 C27.3629351,21.2565776 27.6583821,20.8223034 27.8629223,20.3194597 Z M17.2722846,18.1023758 C18.7722462,16.0910007 20.2040277,14.1939083 22.2494298,13.4396426 C22.4312433,13.371073 22.5448768,13.1653642 22.4766967,12.9596554 L22.4766967,12.9367988 C22.3630632,12.5939508 22.2267031,12.2739593 22.0676163,11.9768244 C21.9085294,11.6796894 21.7039892,11.3825545 21.499449,11.1311326 C21.2949088,10.8797107 21.0449152,10.6282888 20.7721949,10.3997235 C20.4994746,10.1711581 20.2040277,9.98830582 19.9085807,9.82831008 C19.6131337,9.66831433 19.2949601,9.53117512 18.9540597,9.43974898 C18.6131593,9.32546631 18.272259,9.2568967 17.9086319,9.23404017 C17.5450049,9.1883271 17.2041045,9.1883271 16.8404775,9.23404017 C16.4768505,9.27975324 16.1359501,9.34832284 15.7950498,9.43974898 C15.4541494,9.55403166 15.1359757,9.69117087 14.8178021,9.85116661 C14.5223551,10.0111624 14.2269081,10.2168712 13.9769145,10.42258 C13.7269209,10.6282888 13.4769273,10.8797107 13.2496604,11.1539891 C13.0905736,11.3368414 12.9542135,11.5425502 12.8178533,11.7711156 C12.7496733,11.8853982 12.7496733,11.9768244 12.7723999,12.091107 C12.8178533,12.2053897 12.8860334,12.2739593 12.9996668,12.3196724 C13.1133003,12.3653855 13.2042071,12.388242 13.3178405,12.4339551 C13.8405544,12.6625204 14.3405416,12.9367988 14.7723487,13.3025034 C15.045069,13.5082122 15.113249,13.7596341 15.113249,13.9196299 C15.1359757,14.1253387 15.045069,14.3310475 14.8859821,14.4910432 C14.6132619,14.7653217 14.1814547,14.7881782 13.8632811,14.5367563 C13.5223807,14.2624779 13.136027,14.011056 12.7269466,13.8510602 C12.1587793,13.6224949 11.5678854,13.5082122 10.9542647,13.5082122 C10.3406441,13.5082122 9.72702344,13.6224949 9.18158288,13.8510602 C8.61341562,14.0796256 8.11342843,14.4224736 7.68162132,14.8796043 C6.7952804,15.7710092 6.3180199,16.9366925 6.3180199,18.1938019 C6.3180199,18.8109284 6.43165335,19.4280548 6.65892025,19.9766116 C6.88618716,20.548025 7.22708751,21.0508688 7.68162132,21.485143 C8.11342843,21.9194171 8.63614231,22.2622652 9.18158288,22.513687 C9.74975013,22.7422524 10.3406441,22.8565351 10.9542647,22.8565351 C13.6814676,22.8565351 15.4996028,20.4337423 17.2722846,18.1023758 Z" id="Shape"></path>
                </g>
            </g>
        </g>
    </g>
</svg>