<?xml version="1.0" encoding="UTF-8"?>
<svg width="80px" height="80px" viewBox="0 0 80 80" version="1.1" xmlns="http://www.w3.org/2000/svg" xmlns:xlink="http://www.w3.org/1999/xlink">
    <!-- Generator: Sketch 55.1 (78136) - https://sketchapp.com -->
    <title>Logo</title>
    <desc>Created with Sketch.</desc>
    <g id="Page-1" stroke="none" stroke-width="1" fill="none" fill-rule="evenodd">
        <g id="Register-Account-Create-Password" transform="translate(-643.000000, -132.000000)" fill="#0156FF" fill-rule="nonzero">
            <g id="Logo" transform="translate(643.000000, 132.000000)">
                <path d="M75.9606548,42.5442618 L79.4754088,42.5442618 L79.4229498,43.0163929 C78.6885236,52.4590157 74.5967204,61.3245894 67.8819664,67.9868844 C60.3803271,75.4885236 50.3606551,79.6327859 39.7639339,79.6327859 C29.1147537,79.6327859 19.1475407,75.4885236 11.6459015,67.9868844 C4.14426224,60.4852451 0,50.5180322 0,39.868852 C0,29.2196718 4.14426224,19.2524588 11.6459015,11.7508195 C19.1475407,4.24918027 29.1672127,0.104918031 39.7639339,0.104918031 C50.3606551,0.104918031 60.3803271,4.24918027 67.8819664,11.7508195 C74.6491794,18.5180326 78.7409826,27.5409833 79.4229498,37.0885241 L79.4754088,37.5606553 L75.9606548,37.5606553 L75.9081958,37.1409831 C75.2786876,28.4852455 71.5016384,20.3540981 65.4163926,14.2163933 C58.5442616,7.3442622 49.4688518,3.56721307 39.7639339,3.56721307 C30.059016,3.56721307 20.9836063,7.3442622 14.1114752,14.2163933 C7.23934417,21.0885243 3.46229504,30.163934 3.46229504,39.868852 C3.46229504,49.5737699 7.23934417,58.6491796 14.1114752,65.5213107 C20.9836063,72.3934417 30.059016,76.1704908 39.7639339,76.1704908 C49.4688518,76.1704908 58.5442616,72.3934417 65.4163926,65.5213107 C71.4491794,59.4885238 75.1737695,51.4622944 75.9081958,42.9639339 L75.9606548,42.5442618 Z M64.3147533,46.636065 C64.7868844,45.4819666 65.0491795,44.2754093 65.0491795,43.0163929 C65.0491795,41.7573765 64.7868844,40.5508192 64.3147533,39.3967208 C63.8426221,38.2426225 63.1606549,37.2459012 62.2688517,36.3540979 C61.3770484,35.4622946 60.3278681,34.7803274 59.2262288,34.3081963 C58.0721304,33.8360651 56.8655731,33.5737701 55.6065567,33.5737701 C50.2557371,33.5737701 46.583606,38.4524585 42.6491798,43.6459011 C38.0852454,49.6786879 33.363934,55.9737698 25.2852456,55.9737698 C23.396721,55.9737698 21.5606555,55.6065567 19.8295079,54.8721305 C18.0983604,54.1377042 16.52459,53.0885239 15.2131146,51.7770485 C13.9016392,50.4655731 12.8524589,48.8918027 12.1180326,47.1606551 C11.3836064,45.4295076 11.0163933,43.5934421 11.0163933,41.7049175 C11.0163933,37.8754094 12.4852457,34.3081963 15.2131146,31.6327865 C16.52459,30.3213111 18.0983604,29.2721308 19.8295079,28.5377046 C21.4032784,27.8557374 23.0819669,27.5409833 24.8131144,27.4885242 C25.1803276,27.4885242 25.4426226,27.2786882 25.5999997,26.9639341 C25.7573767,26.596721 25.9147538,26.2295079 26.1245898,25.9147538 C26.596721,25.0229505 27.1737702,24.1836063 27.8032783,23.396721 C28.4327865,22.6098358 29.1672127,21.8754096 29.954098,21.2459014 C30.7409832,20.6163932 31.5803275,20.039344 32.4721307,19.5147539 C33.416393,18.9901637 34.3606553,18.5704916 35.3573766,18.3081965 C36.3540979,17.9934424 37.4032782,17.7836063 38.4524585,17.6786883 C39.5016388,17.5737703 40.5508192,17.5737703 41.5999995,17.6786883 C42.6491798,17.7836063 43.6983601,17.9934424 44.6950814,18.3081965 C45.6918027,18.6229506 46.636065,18.9901637 47.5278683,19.4622948 C48.4196715,19.934426 49.2590158,20.5114752 50.045901,21.1409833 C50.8327862,21.7704915 51.5672125,22.5049178 52.1967207,23.291803 C52.8262288,24.0786882 53.403278,24.9180325 53.9278682,25.8098357 C54.4524583,26.754098 54.8721305,27.6983603 55.1344255,28.6950816 C55.1868846,28.9049177 55.2918026,29.1672127 55.3442616,29.4295078 C55.4491796,29.7967209 55.7639337,30.059016 56.1836059,30.111475 C57.6524583,30.163934 59.1213107,30.5311472 60.5377042,31.0557373 C62.1114746,31.7377045 63.5278681,32.6819668 64.7344254,33.8885242 C65.9409828,35.0950815 66.8852451,36.511475 67.5672123,38.0852454 C68.1967205,39.6590159 68.5639336,41.3377044 68.5639336,43.0163929 C68.5639336,44.7475404 68.2491795,46.3737699 67.5672123,47.9475404 C66.8852451,49.5213109 65.9409828,50.9377043 64.7344254,52.1442616 C62.2688517,54.6098354 59.0163933,55.9213108 55.5540977,55.9213108 L43.9606552,55.9213108 C43.0163933,55.9213108 42.2295077,55.1344255 42.2295077,54.1901633 C42.2295077,53.245901 43.0163933,52.4590157 43.9606552,52.4590157 L55.6065567,52.4590157 C58.1245894,52.4590157 60.4852451,51.4622944 62.2688517,49.6786879 C63.1606549,48.7868846 63.8426221,47.7901633 64.3147533,46.636065 Z M39.868852,41.5475405 C43.331147,36.9311471 46.636065,32.5770488 51.3573764,30.8459013 C51.7770485,30.6885242 52.0393436,30.2163931 51.8819666,29.7442619 L51.8819666,29.6918029 C51.6196715,28.9049177 51.3049174,28.1704914 50.9377043,27.4885242 C50.5704912,26.806557 50.09836,26.1245898 49.6262289,25.5475407 C49.1540977,24.9704915 48.5770486,24.3934423 47.9475404,23.8688522 C47.3180322,23.344262 46.636065,22.9245899 45.9540978,22.5573768 C45.2721306,22.1901637 44.5377044,21.8754096 43.7508191,21.6655735 C42.9639339,21.4032784 42.1770487,21.2459014 41.3377044,21.1934424 C40.4983601,21.0885243 39.7114749,21.0885243 38.8721307,21.1934424 C38.0327864,21.2983604 37.2459012,21.4557374 36.4590159,21.6655735 C35.6721307,21.9278686 34.9377045,22.2426227 34.2032783,22.6098358 C33.5213111,22.9770489 32.8393439,23.44918 32.2622947,23.9213112 C31.6852455,24.3934423 31.1081963,24.9704915 30.5836064,25.5999997 C30.2163931,26.0196718 29.901639,26.4918029 29.5868849,27.0163931 C29.4295078,27.2786882 29.4295078,27.4885242 29.4819668,27.7508193 C29.5868849,28.0131144 29.7442619,28.1704914 30.006557,28.2754095 C30.2688521,28.3803275 30.4786881,28.4327865 30.7409832,28.5377046 C31.9475406,29.0622947 33.1016389,29.6918029 34.0983602,30.5311472 C34.7278684,31.0032783 34.8852455,31.5803275 34.8852455,31.9475406 C34.9377045,32.4196717 34.7278684,32.8918029 34.3606553,33.259016 C33.7311471,33.8885242 32.7344258,33.9409832 31.9999996,33.363934 C31.2131144,32.7344258 30.3213111,32.1573766 29.3770488,31.7901635 C28.0655734,31.2655734 26.701639,31.0032783 25.2852456,31.0032783 C23.8688522,31.0032783 22.4524587,31.2655734 21.1934424,31.7901635 C19.881967,32.3147537 18.7278686,33.1016389 17.7311473,34.1508192 C15.6852457,36.1967209 14.5836064,38.8721307 14.5836064,41.7573765 C14.5836064,43.17377 14.8459015,44.5901634 15.3704916,45.8491798 C15.8950818,47.1606551 16.681967,48.3147535 17.7311473,49.3114748 C18.7278686,50.3081961 19.934426,51.0950813 21.1934424,51.6721305 C22.5049178,52.1967207 23.8688522,52.4590157 25.2852456,52.4590157 C31.5803275,52.4590157 35.7770487,46.8983601 39.868852,41.5475405 Z" id="Shape"></path>
            </g>
        </g>
    </g>
</svg>