<?xml version="1.0" encoding="UTF-8"?>
<svg width="22px" height="22px" viewBox="0 0 22 22" version="1.1" xmlns="http://www.w3.org/2000/svg" xmlns:xlink="http://www.w3.org/1999/xlink">
    <!-- Generator: Sketch 55.1 (78136) - https://sketchapp.com -->
    <title>Icons / z-nested / icon glyphs / utility /checkin</title>
    <desc>Created with Sketch.</desc>
    <defs>
        <filter x="-4.0%" y="-14.1%" width="108.1%" height="132.9%" filterUnits="objectBoundingBox" id="filter-1">
            <feOffset dx="0" dy="2" in="SourceAlpha" result="shadowOffsetOuter1"></feOffset>
            <feGaussianBlur stdDeviation="2" in="shadowOffsetOuter1" result="shadowBlurOuter1"></feGaussianBlur>
            <feColorMatrix values="0 0 0 0 0   0 0 0 0 0   0 0 0 0 0  0 0 0 0.5 0" type="matrix" in="shadowBlurOuter1" result="shadowMatrixOuter1"></feColorMatrix>
            <feMerge>
                <feMergeNode in="shadowMatrixOuter1"></feMergeNode>
                <feMergeNode in="SourceGraphic"></feMergeNode>
            </feMerge>
        </filter>
        <path d="M4,1.23076923 L2.15384615,1.23076923 C1.63076923,1.23076923 1.23076923,1.63076923 1.23076923,2.15384615 L1.23076923,4 C1.23076923,4.52307692 1.63076923,4.92307692 2.15384615,4.92307692 L4,4.92307692 C4.52307692,4.92307692 4.92307692,4.52307692 4.92307692,4 L4.92307692,2.15384615 C4.92307692,1.63076923 4.52307692,1.23076923 4,1.23076923 Z M4,11.0769231 L2.15384615,11.0769231 C1.63076923,11.0769231 1.23076923,11.4769231 1.23076923,12 L1.23076923,13.8461538 C1.23076923,14.3692308 1.63076923,14.7692308 2.15384615,14.7692308 L4,14.7692308 C4.52307692,14.7692308 4.92307692,14.3692308 4.92307692,13.8461538 L4.92307692,12 C4.92307692,11.4769231 4.52307692,11.0769231 4,11.0769231 Z M4,6.15384615 L2.15384615,6.15384615 C1.63076923,6.15384615 1.23076923,6.55384615 1.23076923,7.07692308 L1.23076923,8.92307692 C1.23076923,9.44615385 1.63076923,9.84615385 2.15384615,9.84615385 L4,9.84615385 C4.52307692,9.84615385 4.92307692,9.44615385 4.92307692,8.92307692 L4.92307692,7.07692308 C4.92307692,6.55384615 4.52307692,6.15384615 4,6.15384615 Z M8.92307692,1.23076923 L7.07692308,1.23076923 C6.55384615,1.23076923 6.15384615,1.63076923 6.15384615,2.15384615 L6.15384615,4 C6.15384615,4.52307692 6.55384615,4.92307692 7.07692308,4.92307692 L8.92307692,4.92307692 C9.44615385,4.92307692 9.84615385,4.52307692 9.84615385,4 L9.84615385,2.15384615 C9.84615385,1.63076923 9.44615385,1.23076923 8.92307692,1.23076923 Z M8.92307692,11.0769231 L7.07692308,11.0769231 C6.55384615,11.0769231 6.15384615,11.4769231 6.15384615,12 L6.15384615,13.8461538 C6.15384615,14.3692308 6.55384615,14.7692308 7.07692308,14.7692308 L8.92307692,14.7692308 C9.44615385,14.7692308 9.84615385,14.3692308 9.84615385,13.8461538 L9.84615385,12 C9.84615385,11.4769231 9.44615385,11.0769231 8.92307692,11.0769231 Z M8.92307692,6.15384615 L7.07692308,6.15384615 C6.55384615,6.15384615 6.15384615,6.55384615 6.15384615,7.07692308 L6.15384615,8.92307692 C6.15384615,9.44615385 6.55384615,9.84615385 7.07692308,9.84615385 L8.92307692,9.84615385 C9.44615385,9.84615385 9.84615385,9.44615385 9.84615385,8.92307692 L9.84615385,7.07692308 C9.84615385,6.55384615 9.44615385,6.15384615 8.92307692,6.15384615 Z M13.8461538,1.23076923 L12,1.23076923 C11.4769231,1.23076923 11.0769231,1.63076923 11.0769231,2.15384615 L11.0769231,4 C11.0769231,4.52307692 11.4769231,4.92307692 12,4.92307692 L13.8461538,4.92307692 C14.3692308,4.92307692 14.7692308,4.52307692 14.7692308,4 L14.7692308,2.15384615 C14.7692308,1.63076923 14.3692308,1.23076923 13.8461538,1.23076923 Z M13.8461538,11.0769231 L12,11.0769231 C11.4769231,11.0769231 11.0769231,11.4769231 11.0769231,12 L11.0769231,13.8461538 C11.0769231,14.3692308 11.4769231,14.7692308 12,14.7692308 L13.8461538,14.7692308 C14.3692308,14.7692308 14.7692308,14.3692308 14.7692308,13.8461538 L14.7692308,12 C14.7692308,11.4769231 14.3692308,11.0769231 13.8461538,11.0769231 Z M13.8461538,6.15384615 L12,6.15384615 C11.4769231,6.15384615 11.0769231,6.55384615 11.0769231,7.07692308 L11.0769231,8.92307692 C11.0769231,9.44615385 11.4769231,9.84615385 12,9.84615385 L13.8461538,9.84615385 C14.3692308,9.84615385 14.7692308,9.44615385 14.7692308,8.92307692 L14.7692308,7.07692308 C14.7692308,6.55384615 14.3692308,6.15384615 13.8461538,6.15384615 Z" id="path-2"></path>
    </defs>
    <g id="Page-1" stroke="none" stroke-width="1" fill="none" fill-rule="evenodd">
        <g id="Create-Organization---ADD-ADDRESS" transform="translate(-123.000000, -540.000000)">
            <g id="Group-9" transform="translate(98.000000, 163.000000)">
                <g id="Group-21" filter="url(#filter-1)" transform="translate(10.000000, 359.000000)">
                    <g id="Desktop-Components-/Card/With-Header-and-Button">
                        <g id="Group-23">
                            <g id="Icons-/-z-nested-/-icon-glyphs-/-utility-/apps" transform="translate(18.052023, 19.000000)">
                                <mask id="mask-3" fill="white">
                                    <use xlink:href="#path-2"></use>
                                </mask>
                                <use id="Mask" fill="#000000" fill-rule="evenodd" xlink:href="#path-2"></use>
                                <g id="z-nested-/-Icon-Color-/-PALETTE_GRAY_1" mask="url(#mask-3)" fill="#FFFFFF" fill-rule="evenodd">
                                    <g id="z-nested-/-Color-Tokens-/-PALETTE_GRAY_1">
                                        <rect id="Rectangle" x="0" y="0" width="16" height="16"></rect>
                                    </g>
                                </g>
                            </g>
                        </g>
                    </g>
                </g>
            </g>
        </g>
    </g>
</svg>